G04 start of page 12 for group -3984 idx -3984 *
G04 Title: (unknown), fab *
G04 Creator: pcb 20140316 *
G04 CreationDate: Tue 15 Jan 2019 03:59:46 AM GMT UTC *
G04 For: railfan *
G04 Format: Gerber/RS-274X *
G04 PCB-Dimensions (mil): 3500.00 450.00 *
G04 PCB-Coordinate-Origin: lower left *
%MOIN*%
%FSLAX25Y25*%
%LNFAB*%
%ADD43C,0.0100*%
%ADD42C,0.0060*%
%ADD41R,0.0080X0.0080*%
G54D41*X23500Y34100D02*Y30900D01*
X21900Y32500D02*X25100D01*
X23500Y14100D02*Y10900D01*
X21900Y12500D02*X25100D01*
X15000Y87850D02*Y84650D01*
X13400Y86250D02*X16600D01*
G54D42*X135000Y88500D02*Y87750D01*
X136500Y86250D01*
X138000Y87750D01*
Y88500D02*Y87750D01*
X136500Y86250D02*Y82500D01*
X139800Y85500D02*X142050D01*
X139800Y82500D02*X142800D01*
X139800Y88500D02*Y82500D01*
Y88500D02*X142800D01*
X147600D02*X148350Y87750D01*
X145350Y88500D02*X147600D01*
X144600Y87750D02*X145350Y88500D01*
X144600Y87750D02*Y86250D01*
X145350Y85500D01*
X147600D01*
X148350Y84750D01*
Y83250D01*
X147600Y82500D02*X148350Y83250D01*
X145350Y82500D02*X147600D01*
X144600Y83250D02*X145350Y82500D01*
X98000Y87750D02*X98750Y88500D01*
X101000D01*
X101750Y87750D01*
Y86250D01*
X98000Y82500D02*X101750Y86250D01*
X98000Y82500D02*X101750D01*
X45000Y83250D02*X45750Y82500D01*
X45000Y87750D02*Y83250D01*
Y87750D02*X45750Y88500D01*
X47250D01*
X48000Y87750D01*
Y83250D01*
X47250Y82500D02*X48000Y83250D01*
X45750Y82500D02*X47250D01*
X45000Y84000D02*X48000Y87000D01*
X49800Y82500D02*X50550D01*
X52350Y83250D02*X53100Y82500D01*
X52350Y87750D02*Y83250D01*
Y87750D02*X53100Y88500D01*
X54600D01*
X55350Y87750D01*
Y83250D01*
X54600Y82500D02*X55350Y83250D01*
X53100Y82500D02*X54600D01*
X52350Y84000D02*X55350Y87000D01*
X57150Y85500D02*X60150Y88500D01*
X57150Y85500D02*X60900D01*
X60150Y88500D02*Y82500D01*
X62700Y83250D02*X63450Y82500D01*
X62700Y84750D02*Y83250D01*
Y84750D02*X63450Y85500D01*
X64950D01*
X65700Y84750D01*
Y83250D01*
X64950Y82500D02*X65700Y83250D01*
X63450Y82500D02*X64950D01*
X62700Y86250D02*X63450Y85500D01*
X62700Y87750D02*Y86250D01*
Y87750D02*X63450Y88500D01*
X64950D01*
X65700Y87750D01*
Y86250D01*
X64950Y85500D02*X65700Y86250D01*
X52000Y11000D02*Y9400D01*
Y11000D02*X53387Y11800D01*
X52000Y11000D02*X50613Y11800D01*
X52000Y5500D02*Y3900D01*
Y5500D02*X53387Y6300D01*
X52000Y5500D02*X50613Y6300D01*
X77000Y11000D02*Y9400D01*
Y11000D02*X78387Y11800D01*
X77000Y11000D02*X75613Y11800D01*
X77000Y5500D02*Y3900D01*
Y5500D02*X78387Y6300D01*
X77000Y5500D02*X75613Y6300D01*
X102000Y11000D02*Y9400D01*
Y11000D02*X103387Y11800D01*
X102000Y11000D02*X100613Y11800D01*
X102000Y5500D02*Y3900D01*
Y5500D02*X103387Y6300D01*
X102000Y5500D02*X100613Y6300D01*
X127000Y11000D02*Y9400D01*
Y11000D02*X128387Y11800D01*
X127000Y11000D02*X125613Y11800D01*
X127000Y5500D02*Y3900D01*
Y5500D02*X128387Y6300D01*
X127000Y5500D02*X125613Y6300D01*
X152000Y11000D02*Y9400D01*
Y11000D02*X153387Y11800D01*
X152000Y11000D02*X150613Y11800D01*
X152000Y5500D02*Y3900D01*
Y5500D02*X153387Y6300D01*
X152000Y5500D02*X150613Y6300D01*
X177000Y11000D02*Y9400D01*
Y11000D02*X178387Y11800D01*
X177000Y11000D02*X175613Y11800D01*
X177000Y5500D02*Y3900D01*
Y5500D02*X178387Y6300D01*
X177000Y5500D02*X175613Y6300D01*
X202000Y11000D02*Y9400D01*
Y11000D02*X203387Y11800D01*
X202000Y11000D02*X200613Y11800D01*
X202000Y5500D02*Y3900D01*
Y5500D02*X203387Y6300D01*
X202000Y5500D02*X200613Y6300D01*
X227000Y11000D02*Y9400D01*
Y11000D02*X228387Y11800D01*
X227000Y11000D02*X225613Y11800D01*
X227000Y5500D02*Y3900D01*
Y5500D02*X228387Y6300D01*
X227000Y5500D02*X225613Y6300D01*
X252000Y11000D02*Y9400D01*
Y11000D02*X253387Y11800D01*
X252000Y11000D02*X250613Y11800D01*
X252000Y5500D02*Y3900D01*
Y5500D02*X253387Y6300D01*
X252000Y5500D02*X250613Y6300D01*
X277000Y11000D02*Y9400D01*
Y11000D02*X278387Y11800D01*
X277000Y11000D02*X275613Y11800D01*
X277000Y5500D02*Y3900D01*
Y5500D02*X278387Y6300D01*
X277000Y5500D02*X275613Y6300D01*
X302000Y11000D02*Y9400D01*
Y11000D02*X303387Y11800D01*
X302000Y11000D02*X300613Y11800D01*
X302000Y5500D02*Y3900D01*
Y5500D02*X303387Y6300D01*
X302000Y5500D02*X300613Y6300D01*
X327000Y11000D02*Y9400D01*
Y11000D02*X328387Y11800D01*
X327000Y11000D02*X325613Y11800D01*
X327000Y5500D02*Y3900D01*
Y5500D02*X328387Y6300D01*
X327000Y5500D02*X325613Y6300D01*
X15000Y101250D02*Y99650D01*
Y101250D02*X16387Y102050D01*
X15000Y101250D02*X13613Y102050D01*
X135000Y103500D02*Y102750D01*
X136500Y101250D01*
X138000Y102750D01*
Y103500D02*Y102750D01*
X136500Y101250D02*Y97500D01*
X139800Y100500D02*X142050D01*
X139800Y97500D02*X142800D01*
X139800Y103500D02*Y97500D01*
Y103500D02*X142800D01*
X147600D02*X148350Y102750D01*
X145350Y103500D02*X147600D01*
X144600Y102750D02*X145350Y103500D01*
X144600Y102750D02*Y101250D01*
X145350Y100500D01*
X147600D01*
X148350Y99750D01*
Y98250D01*
X147600Y97500D02*X148350Y98250D01*
X145350Y97500D02*X147600D01*
X144600Y98250D02*X145350Y97500D01*
X98000Y102750D02*X98750Y103500D01*
X101000D01*
X101750Y102750D01*
Y101250D01*
X98000Y97500D02*X101750Y101250D01*
X98000Y97500D02*X101750D01*
X103550Y100500D02*X106550Y103500D01*
X103550Y100500D02*X107300D01*
X106550Y103500D02*Y97500D01*
X45000Y98250D02*X45750Y97500D01*
X45000Y102750D02*Y98250D01*
Y102750D02*X45750Y103500D01*
X47250D01*
X48000Y102750D01*
Y98250D01*
X47250Y97500D02*X48000Y98250D01*
X45750Y97500D02*X47250D01*
X45000Y99000D02*X48000Y102000D01*
X49800Y97500D02*X50550D01*
X52350Y98250D02*X53100Y97500D01*
X52350Y102750D02*Y98250D01*
Y102750D02*X53100Y103500D01*
X54600D01*
X55350Y102750D01*
Y98250D01*
X54600Y97500D02*X55350Y98250D01*
X53100Y97500D02*X54600D01*
X52350Y99000D02*X55350Y102000D01*
X57900Y97500D02*X59400D01*
X58650Y103500D02*Y97500D01*
X57150Y102000D02*X58650Y103500D01*
X61200Y102750D02*X61950Y103500D01*
X64200D01*
X64950Y102750D01*
Y101250D01*
X61200Y97500D02*X64950Y101250D01*
X61200Y97500D02*X64950D01*
X3000Y118500D02*X3750Y117750D01*
X750Y118500D02*X3000D01*
X0Y117750D02*X750Y118500D01*
X0Y117750D02*Y116250D01*
X750Y115500D01*
X3000D01*
X3750Y114750D01*
Y113250D01*
X3000Y112500D02*X3750Y113250D01*
X750Y112500D02*X3000D01*
X0Y113250D02*X750Y112500D01*
X5550Y115500D02*Y113250D01*
X6300Y112500D01*
X8550Y115500D02*Y111000D01*
X7800Y110250D02*X8550Y111000D01*
X6300Y110250D02*X7800D01*
X5550Y111000D02*X6300Y110250D01*
Y112500D02*X7800D01*
X8550Y113250D01*
X11100Y114750D02*Y112500D01*
Y114750D02*X11850Y115500D01*
X12600D01*
X13350Y114750D01*
Y112500D01*
Y114750D02*X14100Y115500D01*
X14850D01*
X15600Y114750D01*
Y112500D01*
X10350Y115500D02*X11100Y114750D01*
X17400Y118500D02*Y112500D01*
Y113250D02*X18150Y112500D01*
X19650D01*
X20400Y113250D01*
Y114750D02*Y113250D01*
X19650Y115500D02*X20400Y114750D01*
X18150Y115500D02*X19650D01*
X17400Y114750D02*X18150Y115500D01*
X22200Y114750D02*Y113250D01*
Y114750D02*X22950Y115500D01*
X24450D01*
X25200Y114750D01*
Y113250D01*
X24450Y112500D02*X25200Y113250D01*
X22950Y112500D02*X24450D01*
X22200Y113250D02*X22950Y112500D01*
X27000Y118500D02*Y113250D01*
X27750Y112500D01*
X0Y109250D02*X29250D01*
X41750Y118500D02*Y112500D01*
X44000Y118500D02*X44750Y117750D01*
Y113250D01*
X44000Y112500D02*X44750Y113250D01*
X41000Y112500D02*X44000D01*
X41000Y118500D02*X44000D01*
X46550Y117000D02*Y116250D01*
Y114750D02*Y112500D01*
X50300Y115500D02*X51050Y114750D01*
X48800Y115500D02*X50300D01*
X48050Y114750D02*X48800Y115500D01*
X48050Y114750D02*Y113250D01*
X48800Y112500D01*
X51050Y115500D02*Y113250D01*
X51800Y112500D01*
X48800D02*X50300D01*
X51050Y113250D01*
X54350Y114750D02*Y112500D01*
Y114750D02*X55100Y115500D01*
X55850D01*
X56600Y114750D01*
Y112500D01*
Y114750D02*X57350Y115500D01*
X58100D01*
X58850Y114750D01*
Y112500D01*
X53600Y115500D02*X54350Y114750D01*
X60650Y112500D02*X61400D01*
X65900Y113250D02*X66650Y112500D01*
X65900Y117750D02*X66650Y118500D01*
X65900Y117750D02*Y113250D01*
X68450Y118500D02*X69950D01*
X69200D02*Y112500D01*
X68450D02*X69950D01*
X72500Y114750D02*Y112500D01*
Y114750D02*X73250Y115500D01*
X74000D01*
X74750Y114750D01*
Y112500D01*
X71750Y115500D02*X72500Y114750D01*
X77300Y115500D02*X79550D01*
X76550Y114750D02*X77300Y115500D01*
X76550Y114750D02*Y113250D01*
X77300Y112500D01*
X79550D01*
X81350Y118500D02*Y112500D01*
Y114750D02*X82100Y115500D01*
X83600D01*
X84350Y114750D01*
Y112500D01*
X86150Y118500D02*X86900Y117750D01*
Y113250D01*
X86150Y112500D02*X86900Y113250D01*
X41000Y109250D02*X88700D01*
X95750Y112500D02*X98000D01*
X95000Y113250D02*X95750Y112500D01*
X95000Y117750D02*Y113250D01*
Y117750D02*X95750Y118500D01*
X98000D01*
X99800Y114750D02*Y113250D01*
Y114750D02*X100550Y115500D01*
X102050D01*
X102800Y114750D01*
Y113250D01*
X102050Y112500D02*X102800Y113250D01*
X100550Y112500D02*X102050D01*
X99800Y113250D02*X100550Y112500D01*
X104600Y115500D02*Y113250D01*
X105350Y112500D01*
X106850D01*
X107600Y113250D01*
Y115500D02*Y113250D01*
X110150Y114750D02*Y112500D01*
Y114750D02*X110900Y115500D01*
X111650D01*
X112400Y114750D01*
Y112500D01*
X109400Y115500D02*X110150Y114750D01*
X114950Y118500D02*Y113250D01*
X115700Y112500D01*
X114200Y116250D02*X115700D01*
X95000Y109250D02*X117200D01*
X130750Y118500D02*Y112500D01*
X130000Y118500D02*X133000D01*
X133750Y117750D01*
Y116250D01*
X133000Y115500D02*X133750Y116250D01*
X130750Y115500D02*X133000D01*
X135550Y118500D02*Y113250D01*
X136300Y112500D01*
X140050Y115500D02*X140800Y114750D01*
X138550Y115500D02*X140050D01*
X137800Y114750D02*X138550Y115500D01*
X137800Y114750D02*Y113250D01*
X138550Y112500D01*
X140800Y115500D02*Y113250D01*
X141550Y112500D01*
X138550D02*X140050D01*
X140800Y113250D01*
X144100Y118500D02*Y113250D01*
X144850Y112500D01*
X143350Y116250D02*X144850D01*
X147100Y112500D02*X149350D01*
X146350Y113250D02*X147100Y112500D01*
X146350Y114750D02*Y113250D01*
Y114750D02*X147100Y115500D01*
X148600D01*
X149350Y114750D01*
X146350Y114000D02*X149350D01*
Y114750D02*Y114000D01*
X154150Y118500D02*Y112500D01*
X153400D02*X154150Y113250D01*
X151900Y112500D02*X153400D01*
X151150Y113250D02*X151900Y112500D01*
X151150Y114750D02*Y113250D01*
Y114750D02*X151900Y115500D01*
X153400D01*
X154150Y114750D01*
X157450Y115500D02*Y114750D01*
Y113250D02*Y112500D01*
X155950Y117750D02*Y117000D01*
Y117750D02*X156700Y118500D01*
X158200D01*
X158950Y117750D01*
Y117000D01*
X157450Y115500D02*X158950Y117000D01*
X130000Y109250D02*X160750D01*
X0Y133500D02*X3000D01*
X1500D02*Y127500D01*
X4800Y133500D02*Y127500D01*
Y129750D02*X5550Y130500D01*
X7050D01*
X7800Y129750D01*
Y127500D01*
X10350D02*X12600D01*
X9600Y128250D02*X10350Y127500D01*
X9600Y129750D02*Y128250D01*
Y129750D02*X10350Y130500D01*
X11850D01*
X12600Y129750D01*
X9600Y129000D02*X12600D01*
Y129750D02*Y129000D01*
X15150Y129750D02*Y127500D01*
Y129750D02*X15900Y130500D01*
X17400D01*
X14400D02*X15150Y129750D01*
X19950Y127500D02*X22200D01*
X19200Y128250D02*X19950Y127500D01*
X19200Y129750D02*Y128250D01*
Y129750D02*X19950Y130500D01*
X21450D01*
X22200Y129750D01*
X19200Y129000D02*X22200D01*
Y129750D02*Y129000D01*
X28950Y130500D02*X29700Y129750D01*
X27450Y130500D02*X28950D01*
X26700Y129750D02*X27450Y130500D01*
X26700Y129750D02*Y128250D01*
X27450Y127500D01*
X29700Y130500D02*Y128250D01*
X30450Y127500D01*
X27450D02*X28950D01*
X29700Y128250D01*
X33000Y129750D02*Y127500D01*
Y129750D02*X33750Y130500D01*
X35250D01*
X32250D02*X33000Y129750D01*
X37800Y127500D02*X40050D01*
X37050Y128250D02*X37800Y127500D01*
X37050Y129750D02*Y128250D01*
Y129750D02*X37800Y130500D01*
X39300D01*
X40050Y129750D01*
X37050Y129000D02*X40050D01*
Y129750D02*Y129000D01*
X44550Y132750D02*X45300Y133500D01*
X47550D01*
X48300Y132750D01*
Y131250D01*
X44550Y127500D02*X48300Y131250D01*
X44550Y127500D02*X48300D01*
X55800Y133500D02*Y127500D01*
X55050D02*X55800Y128250D01*
X53550Y127500D02*X55050D01*
X52800Y128250D02*X53550Y127500D01*
X52800Y129750D02*Y128250D01*
Y129750D02*X53550Y130500D01*
X55050D01*
X55800Y129750D01*
X57600Y132000D02*Y131250D01*
Y129750D02*Y127500D01*
X59850Y132750D02*Y127500D01*
Y132750D02*X60600Y133500D01*
X61350D01*
X59100Y130500D02*X60600D01*
X63600Y132750D02*Y127500D01*
Y132750D02*X64350Y133500D01*
X65100D01*
X62850Y130500D02*X64350D01*
X67350Y127500D02*X69600D01*
X66600Y128250D02*X67350Y127500D01*
X66600Y129750D02*Y128250D01*
Y129750D02*X67350Y130500D01*
X68850D01*
X69600Y129750D01*
X66600Y129000D02*X69600D01*
Y129750D02*Y129000D01*
X72150Y129750D02*Y127500D01*
Y129750D02*X72900Y130500D01*
X74400D01*
X71400D02*X72150Y129750D01*
X76950Y127500D02*X79200D01*
X76200Y128250D02*X76950Y127500D01*
X76200Y129750D02*Y128250D01*
Y129750D02*X76950Y130500D01*
X78450D01*
X79200Y129750D01*
X76200Y129000D02*X79200D01*
Y129750D02*Y129000D01*
X81750Y129750D02*Y127500D01*
Y129750D02*X82500Y130500D01*
X83250D01*
X84000Y129750D01*
Y127500D01*
X81000Y130500D02*X81750Y129750D01*
X86550Y133500D02*Y128250D01*
X87300Y127500D01*
X85800Y131250D02*X87300D01*
X94500Y133500D02*Y127500D01*
X93750D02*X94500Y128250D01*
X92250Y127500D02*X93750D01*
X91500Y128250D02*X92250Y127500D01*
X91500Y129750D02*Y128250D01*
Y129750D02*X92250Y130500D01*
X93750D01*
X94500Y129750D01*
X97050D02*Y127500D01*
Y129750D02*X97800Y130500D01*
X99300D01*
X96300D02*X97050Y129750D01*
X101100Y132000D02*Y131250D01*
Y129750D02*Y127500D01*
X102600Y133500D02*Y128250D01*
X103350Y127500D01*
X104850Y133500D02*Y128250D01*
X105600Y127500D01*
X110550D02*X112800D01*
X113550Y128250D01*
X112800Y129000D02*X113550Y128250D01*
X110550Y129000D02*X112800D01*
X109800Y129750D02*X110550Y129000D01*
X109800Y129750D02*X110550Y130500D01*
X112800D01*
X113550Y129750D01*
X109800Y128250D02*X110550Y127500D01*
X115350Y132000D02*Y131250D01*
Y129750D02*Y127500D01*
X116850Y130500D02*X119850D01*
X116850Y127500D02*X119850Y130500D01*
X116850Y127500D02*X119850D01*
X122400D02*X124650D01*
X121650Y128250D02*X122400Y127500D01*
X121650Y129750D02*Y128250D01*
Y129750D02*X122400Y130500D01*
X123900D01*
X124650Y129750D01*
X121650Y129000D02*X124650D01*
Y129750D02*Y129000D01*
X127200Y127500D02*X129450D01*
X130200Y128250D01*
X129450Y129000D02*X130200Y128250D01*
X127200Y129000D02*X129450D01*
X126450Y129750D02*X127200Y129000D01*
X126450Y129750D02*X127200Y130500D01*
X129450D01*
X130200Y129750D01*
X126450Y128250D02*X127200Y127500D01*
X134700Y130500D02*Y128250D01*
X135450Y127500D01*
X136950D01*
X137700Y128250D01*
Y130500D02*Y128250D01*
X140250Y127500D02*X142500D01*
X143250Y128250D01*
X142500Y129000D02*X143250Y128250D01*
X140250Y129000D02*X142500D01*
X139500Y129750D02*X140250Y129000D01*
X139500Y129750D02*X140250Y130500D01*
X142500D01*
X143250Y129750D01*
X139500Y128250D02*X140250Y127500D01*
X145800D02*X148050D01*
X145050Y128250D02*X145800Y127500D01*
X145050Y129750D02*Y128250D01*
Y129750D02*X145800Y130500D01*
X147300D01*
X148050Y129750D01*
X145050Y129000D02*X148050D01*
Y129750D02*Y129000D01*
X152850Y133500D02*Y127500D01*
X152100D02*X152850Y128250D01*
X150600Y127500D02*X152100D01*
X149850Y128250D02*X150600Y127500D01*
X149850Y129750D02*Y128250D01*
Y129750D02*X150600Y130500D01*
X152100D01*
X152850Y129750D01*
X157350Y132000D02*Y131250D01*
Y129750D02*Y127500D01*
X159600Y129750D02*Y127500D01*
Y129750D02*X160350Y130500D01*
X161100D01*
X161850Y129750D01*
Y127500D01*
X158850Y130500D02*X159600Y129750D01*
X167100Y133500D02*Y128250D01*
X167850Y127500D01*
X166350Y131250D02*X167850D01*
X169350Y133500D02*Y127500D01*
Y129750D02*X170100Y130500D01*
X171600D01*
X172350Y129750D01*
Y127500D01*
X174150Y132000D02*Y131250D01*
Y129750D02*Y127500D01*
X176400D02*X178650D01*
X179400Y128250D01*
X178650Y129000D02*X179400Y128250D01*
X176400Y129000D02*X178650D01*
X175650Y129750D02*X176400Y129000D01*
X175650Y129750D02*X176400Y130500D01*
X178650D01*
X179400Y129750D01*
X175650Y128250D02*X176400Y127500D01*
X183900Y133500D02*Y128250D01*
X184650Y127500D01*
X188400Y130500D02*X189150Y129750D01*
X186900Y130500D02*X188400D01*
X186150Y129750D02*X186900Y130500D01*
X186150Y129750D02*Y128250D01*
X186900Y127500D01*
X189150Y130500D02*Y128250D01*
X189900Y127500D01*
X186900D02*X188400D01*
X189150Y128250D01*
X191700Y130500D02*Y128250D01*
X192450Y127500D01*
X194700Y130500D02*Y126000D01*
X193950Y125250D02*X194700Y126000D01*
X192450Y125250D02*X193950D01*
X191700Y126000D02*X192450Y125250D01*
Y127500D02*X193950D01*
X194700Y128250D01*
X196500Y129750D02*Y128250D01*
Y129750D02*X197250Y130500D01*
X198750D01*
X199500Y129750D01*
Y128250D01*
X198750Y127500D02*X199500Y128250D01*
X197250Y127500D02*X198750D01*
X196500Y128250D02*X197250Y127500D01*
X201300Y130500D02*Y128250D01*
X202050Y127500D01*
X203550D01*
X204300Y128250D01*
Y130500D02*Y128250D01*
X206850Y133500D02*Y128250D01*
X207600Y127500D01*
X206100Y131250D02*X207600D01*
X209100Y126000D02*X210600Y127500D01*
X215100Y132750D02*X215850Y133500D01*
X218100D01*
X218850Y132750D01*
Y131250D01*
X215100Y127500D02*X218850Y131250D01*
X215100Y127500D02*X218850D01*
X222900Y133500D02*X223650Y132750D01*
X221400Y133500D02*X222900D01*
X220650Y132750D02*X221400Y133500D01*
X220650Y132750D02*Y128250D01*
X221400Y127500D01*
X222900Y130500D02*X223650Y129750D01*
X220650Y130500D02*X222900D01*
X221400Y127500D02*X222900D01*
X223650Y128250D01*
Y129750D02*Y128250D01*
X228150Y133500D02*Y127500D01*
Y129750D02*X228900Y130500D01*
X230400D01*
X231150Y129750D01*
Y127500D01*
X232950Y129750D02*Y128250D01*
Y129750D02*X233700Y130500D01*
X235200D01*
X235950Y129750D01*
Y128250D01*
X235200Y127500D02*X235950Y128250D01*
X233700Y127500D02*X235200D01*
X232950Y128250D02*X233700Y127500D01*
X237750Y133500D02*Y128250D01*
X238500Y127500D01*
X240750D02*X243000D01*
X240000Y128250D02*X240750Y127500D01*
X240000Y129750D02*Y128250D01*
Y129750D02*X240750Y130500D01*
X242250D01*
X243000Y129750D01*
X240000Y129000D02*X243000D01*
Y129750D02*Y129000D01*
X245550Y127500D02*X247800D01*
X248550Y128250D01*
X247800Y129000D02*X248550Y128250D01*
X245550Y129000D02*X247800D01*
X244800Y129750D02*X245550Y129000D01*
X244800Y129750D02*X245550Y130500D01*
X247800D01*
X248550Y129750D01*
X244800Y128250D02*X245550Y127500D01*
X253800Y133500D02*Y128250D01*
X254550Y127500D01*
X253050Y131250D02*X254550D01*
X256050Y129750D02*Y128250D01*
Y129750D02*X256800Y130500D01*
X258300D01*
X259050Y129750D01*
Y128250D01*
X258300Y127500D02*X259050Y128250D01*
X256800Y127500D02*X258300D01*
X256050Y128250D02*X256800Y127500D01*
X261600Y133500D02*Y128250D01*
X262350Y127500D01*
X260850Y131250D02*X262350D01*
X266100Y130500D02*X266850Y129750D01*
X264600Y130500D02*X266100D01*
X263850Y129750D02*X264600Y130500D01*
X263850Y129750D02*Y128250D01*
X264600Y127500D01*
X266850Y130500D02*Y128250D01*
X267600Y127500D01*
X264600D02*X266100D01*
X266850Y128250D01*
X269400Y133500D02*Y128250D01*
X270150Y127500D01*
G54D43*X0Y0D02*X350000D01*
Y45000D01*
X0D01*
Y0D01*
G54D42*X88675Y-9500D02*X91675D01*
X92425Y-8750D01*
Y-7250D02*Y-8750D01*
X91675Y-6500D02*X92425Y-7250D01*
X89425Y-6500D02*X91675D01*
X89425Y-3500D02*Y-9500D01*
X88675Y-3500D02*X91675D01*
X92425Y-4250D01*
Y-5750D01*
X91675Y-6500D02*X92425Y-5750D01*
X94225Y-7250D02*Y-8750D01*
Y-7250D02*X94975Y-6500D01*
X96475D01*
X97225Y-7250D01*
Y-8750D01*
X96475Y-9500D02*X97225Y-8750D01*
X94975Y-9500D02*X96475D01*
X94225Y-8750D02*X94975Y-9500D01*
X101275Y-6500D02*X102025Y-7250D01*
X99775Y-6500D02*X101275D01*
X99025Y-7250D02*X99775Y-6500D01*
X99025Y-7250D02*Y-8750D01*
X99775Y-9500D01*
X102025Y-6500D02*Y-8750D01*
X102775Y-9500D01*
X99775D02*X101275D01*
X102025Y-8750D01*
X105325Y-7250D02*Y-9500D01*
Y-7250D02*X106075Y-6500D01*
X107575D01*
X104575D02*X105325Y-7250D01*
X112375Y-3500D02*Y-9500D01*
X111625D02*X112375Y-8750D01*
X110125Y-9500D02*X111625D01*
X109375Y-8750D02*X110125Y-9500D01*
X109375Y-7250D02*Y-8750D01*
Y-7250D02*X110125Y-6500D01*
X111625D01*
X112375Y-7250D01*
X116875D02*Y-8750D01*
Y-7250D02*X117625Y-6500D01*
X119125D01*
X119875Y-7250D01*
Y-8750D01*
X119125Y-9500D02*X119875Y-8750D01*
X117625Y-9500D02*X119125D01*
X116875Y-8750D02*X117625Y-9500D01*
X121675Y-6500D02*Y-8750D01*
X122425Y-9500D01*
X123925D01*
X124675Y-8750D01*
Y-6500D02*Y-8750D01*
X127225Y-3500D02*Y-8750D01*
X127975Y-9500D01*
X126475Y-5750D02*X127975D01*
X129475Y-3500D02*Y-8750D01*
X130225Y-9500D01*
X131725Y-5000D02*Y-5750D01*
Y-7250D02*Y-9500D01*
X133975Y-7250D02*Y-9500D01*
Y-7250D02*X134725Y-6500D01*
X135475D01*
X136225Y-7250D01*
Y-9500D01*
X133225Y-6500D02*X133975Y-7250D01*
X138775Y-9500D02*X141025D01*
X138025Y-8750D02*X138775Y-9500D01*
X138025Y-7250D02*Y-8750D01*
Y-7250D02*X138775Y-6500D01*
X140275D01*
X141025Y-7250D01*
X138025Y-8000D02*X141025D01*
Y-7250D02*Y-8000D01*
X145525Y-5000D02*Y-5750D01*
Y-7250D02*Y-9500D01*
X147775D02*X150025D01*
X150775Y-8750D01*
X150025Y-8000D02*X150775Y-8750D01*
X147775Y-8000D02*X150025D01*
X147025Y-7250D02*X147775Y-8000D01*
X147025Y-7250D02*X147775Y-6500D01*
X150025D01*
X150775Y-7250D01*
X147025Y-8750D02*X147775Y-9500D01*
X156025Y-3500D02*Y-8750D01*
X156775Y-9500D01*
X155275Y-5750D02*X156775D01*
X158275Y-3500D02*Y-9500D01*
Y-7250D02*X159025Y-6500D01*
X160525D01*
X161275Y-7250D01*
Y-9500D01*
X163825D02*X166075D01*
X163075Y-8750D02*X163825Y-9500D01*
X163075Y-7250D02*Y-8750D01*
Y-7250D02*X163825Y-6500D01*
X165325D01*
X166075Y-7250D01*
X163075Y-8000D02*X166075D01*
Y-7250D02*Y-8000D01*
X171325Y-6500D02*X173575D01*
X170575Y-7250D02*X171325Y-6500D01*
X170575Y-7250D02*Y-8750D01*
X171325Y-9500D01*
X173575D01*
X176125D02*X178375D01*
X175375Y-8750D02*X176125Y-9500D01*
X175375Y-7250D02*Y-8750D01*
Y-7250D02*X176125Y-6500D01*
X177625D01*
X178375Y-7250D01*
X175375Y-8000D02*X178375D01*
Y-7250D02*Y-8000D01*
X180925Y-7250D02*Y-9500D01*
Y-7250D02*X181675Y-6500D01*
X182425D01*
X183175Y-7250D01*
Y-9500D01*
X180175Y-6500D02*X180925Y-7250D01*
X185725Y-3500D02*Y-8750D01*
X186475Y-9500D01*
X184975Y-5750D02*X186475D01*
X188725Y-9500D02*X190975D01*
X187975Y-8750D02*X188725Y-9500D01*
X187975Y-7250D02*Y-8750D01*
Y-7250D02*X188725Y-6500D01*
X190225D01*
X190975Y-7250D01*
X187975Y-8000D02*X190975D01*
Y-7250D02*Y-8000D01*
X193525Y-7250D02*Y-9500D01*
Y-7250D02*X194275Y-6500D01*
X195775D01*
X192775D02*X193525Y-7250D01*
X197575Y-3500D02*Y-8750D01*
X198325Y-9500D01*
X199825Y-5000D02*Y-5750D01*
Y-7250D02*Y-9500D01*
X202075Y-7250D02*Y-9500D01*
Y-7250D02*X202825Y-6500D01*
X203575D01*
X204325Y-7250D01*
Y-9500D01*
X201325Y-6500D02*X202075Y-7250D01*
X206875Y-9500D02*X209125D01*
X206125Y-8750D02*X206875Y-9500D01*
X206125Y-7250D02*Y-8750D01*
Y-7250D02*X206875Y-6500D01*
X208375D01*
X209125Y-7250D01*
X206125Y-8000D02*X209125D01*
Y-7250D02*Y-8000D01*
X213625Y-7250D02*Y-8750D01*
Y-7250D02*X214375Y-6500D01*
X215875D01*
X216625Y-7250D01*
Y-8750D01*
X215875Y-9500D02*X216625Y-8750D01*
X214375Y-9500D02*X215875D01*
X213625Y-8750D02*X214375Y-9500D01*
X219175Y-4250D02*Y-9500D01*
Y-4250D02*X219925Y-3500D01*
X220675D01*
X218425Y-6500D02*X219925D01*
X225625Y-3500D02*Y-8750D01*
X226375Y-9500D01*
X224875Y-5750D02*X226375D01*
X227875Y-3500D02*Y-9500D01*
Y-7250D02*X228625Y-6500D01*
X230125D01*
X230875Y-7250D01*
Y-9500D01*
X232675Y-5000D02*Y-5750D01*
Y-7250D02*Y-9500D01*
X234925D02*X237175D01*
X237925Y-8750D01*
X237175Y-8000D02*X237925Y-8750D01*
X234925Y-8000D02*X237175D01*
X234175Y-7250D02*X234925Y-8000D01*
X234175Y-7250D02*X234925Y-6500D01*
X237175D01*
X237925Y-7250D01*
X234175Y-8750D02*X234925Y-9500D01*
X243175Y-7250D02*Y-11750D01*
X242425Y-6500D02*X243175Y-7250D01*
X243925Y-6500D01*
X245425D01*
X246175Y-7250D01*
Y-8750D01*
X245425Y-9500D02*X246175Y-8750D01*
X243925Y-9500D02*X245425D01*
X243175Y-8750D02*X243925Y-9500D01*
X250225Y-6500D02*X250975Y-7250D01*
X248725Y-6500D02*X250225D01*
X247975Y-7250D02*X248725Y-6500D01*
X247975Y-7250D02*Y-8750D01*
X248725Y-9500D01*
X250975Y-6500D02*Y-8750D01*
X251725Y-9500D01*
X248725D02*X250225D01*
X250975Y-8750D01*
X254275Y-3500D02*Y-8750D01*
X255025Y-9500D01*
X253525Y-5750D02*X255025D01*
X256525Y-3500D02*Y-9500D01*
Y-7250D02*X257275Y-6500D01*
X258775D01*
X259525Y-7250D01*
Y-9500D01*
X200750Y73500D02*Y67500D01*
X203000Y73500D02*X203750Y72750D01*
Y68250D01*
X203000Y67500D02*X203750Y68250D01*
X200000Y67500D02*X203000D01*
X200000Y73500D02*X203000D01*
X207800Y70500D02*X208550Y69750D01*
X206300Y70500D02*X207800D01*
X205550Y69750D02*X206300Y70500D01*
X205550Y69750D02*Y68250D01*
X206300Y67500D01*
X208550Y70500D02*Y68250D01*
X209300Y67500D01*
X206300D02*X207800D01*
X208550Y68250D01*
X211850Y73500D02*Y68250D01*
X212600Y67500D01*
X211100Y71250D02*X212600D01*
X214850Y67500D02*X217100D01*
X214100Y68250D02*X214850Y67500D01*
X214100Y69750D02*Y68250D01*
Y69750D02*X214850Y70500D01*
X216350D01*
X217100Y69750D01*
X214100Y69000D02*X217100D01*
Y69750D02*Y69000D01*
X218900Y71250D02*X219650D01*
X218900Y69750D02*X219650D01*
X224150Y73500D02*X227150D01*
X225650D02*Y67500D01*
X228950Y70500D02*Y68250D01*
X229700Y67500D01*
X231200D01*
X231950Y68250D01*
Y70500D02*Y68250D01*
X234500Y67500D02*X236750D01*
X233750Y68250D02*X234500Y67500D01*
X233750Y69750D02*Y68250D01*
Y69750D02*X234500Y70500D01*
X236000D01*
X236750Y69750D01*
X233750Y69000D02*X236750D01*
Y69750D02*Y69000D01*
X242000Y67500D02*X243500D01*
X242750Y73500D02*Y67500D01*
X241250Y72000D02*X242750Y73500D01*
X245300D02*X248300D01*
X245300D02*Y70500D01*
X246050Y71250D01*
X247550D01*
X248300Y70500D01*
Y68250D01*
X247550Y67500D02*X248300Y68250D01*
X246050Y67500D02*X247550D01*
X245300Y68250D02*X246050Y67500D01*
X252800Y73500D02*X255050D01*
Y68250D01*
X254300Y67500D02*X255050Y68250D01*
X253550Y67500D02*X254300D01*
X252800Y68250D02*X253550Y67500D01*
X259100Y70500D02*X259850Y69750D01*
X257600Y70500D02*X259100D01*
X256850Y69750D02*X257600Y70500D01*
X256850Y69750D02*Y68250D01*
X257600Y67500D01*
X259850Y70500D02*Y68250D01*
X260600Y67500D01*
X257600D02*X259100D01*
X259850Y68250D01*
X263150Y69750D02*Y67500D01*
Y69750D02*X263900Y70500D01*
X264650D01*
X265400Y69750D01*
Y67500D01*
X262400Y70500D02*X263150Y69750D01*
X269900Y72750D02*X270650Y73500D01*
X272900D01*
X273650Y72750D01*
Y71250D01*
X269900Y67500D02*X273650Y71250D01*
X269900Y67500D02*X273650D01*
X275450Y68250D02*X276200Y67500D01*
X275450Y72750D02*Y68250D01*
Y72750D02*X276200Y73500D01*
X277700D01*
X278450Y72750D01*
Y68250D01*
X277700Y67500D02*X278450Y68250D01*
X276200Y67500D02*X277700D01*
X275450Y69000D02*X278450Y72000D01*
X281000Y67500D02*X282500D01*
X281750Y73500D02*Y67500D01*
X280250Y72000D02*X281750Y73500D01*
X284300Y67500D02*X287300Y70500D01*
Y72750D02*Y70500D01*
X286550Y73500D02*X287300Y72750D01*
X285050Y73500D02*X286550D01*
X284300Y72750D02*X285050Y73500D01*
X284300Y72750D02*Y71250D01*
X285050Y70500D01*
X287300D01*
X291800Y68250D02*X292550Y67500D01*
X291800Y72750D02*Y68250D01*
Y72750D02*X292550Y73500D01*
X294050D01*
X294800Y72750D01*
Y68250D01*
X294050Y67500D02*X294800Y68250D01*
X292550Y67500D02*X294050D01*
X291800Y69000D02*X294800Y72000D01*
X296600Y72750D02*X297350Y73500D01*
X298850D01*
X299600Y72750D01*
Y68250D01*
X298850Y67500D02*X299600Y68250D01*
X297350Y67500D02*X298850D01*
X296600Y68250D02*X297350Y67500D01*
Y70500D02*X299600D01*
X301400Y71250D02*X302150D01*
X301400Y69750D02*X302150D01*
X303950Y73500D02*X306950D01*
X303950D02*Y70500D01*
X304700Y71250D01*
X306200D01*
X306950Y70500D01*
Y68250D01*
X306200Y67500D02*X306950Y68250D01*
X304700Y67500D02*X306200D01*
X303950Y68250D02*X304700Y67500D01*
X308750D02*X311750Y70500D01*
Y72750D02*Y70500D01*
X311000Y73500D02*X311750Y72750D01*
X309500Y73500D02*X311000D01*
X308750Y72750D02*X309500Y73500D01*
X308750Y72750D02*Y71250D01*
X309500Y70500D01*
X311750D01*
X313550Y71250D02*X314300D01*
X313550Y69750D02*X314300D01*
X316100Y70500D02*X319100Y73500D01*
X316100Y70500D02*X319850D01*
X319100Y73500D02*Y67500D01*
X323900Y73500D02*X324650Y72750D01*
X322400Y73500D02*X323900D01*
X321650Y72750D02*X322400Y73500D01*
X321650Y72750D02*Y68250D01*
X322400Y67500D01*
X323900Y70500D02*X324650Y69750D01*
X321650Y70500D02*X323900D01*
X322400Y67500D02*X323900D01*
X324650Y68250D01*
Y69750D02*Y68250D01*
X329150Y72750D02*Y67500D01*
Y72750D02*X329900Y73500D01*
X332150D01*
X332900Y72750D01*
Y67500D01*
X329150Y70500D02*X332900D01*
X334700Y73500D02*Y67500D01*
Y73500D02*X336950Y71250D01*
X339200Y73500D01*
Y67500D01*
X346700Y73500D02*X347450Y72750D01*
X344450Y73500D02*X346700D01*
X343700Y72750D02*X344450Y73500D01*
X343700Y72750D02*Y68250D01*
X344450Y67500D01*
X346700D01*
X347450Y68250D01*
Y69750D02*Y68250D01*
X346700Y70500D02*X347450Y69750D01*
X345200Y70500D02*X346700D01*
X349250Y73500D02*Y67500D01*
Y73500D02*X351500Y71250D01*
X353750Y73500D01*
Y67500D01*
X355550Y73500D02*X358550D01*
X357050D02*Y67500D01*
X363050Y73500D02*Y68250D01*
X363800Y67500D01*
X365300D01*
X366050Y68250D01*
Y73500D02*Y68250D01*
X367850Y73500D02*X370850D01*
X369350D02*Y67500D01*
X373400D02*X375650D01*
X372650Y68250D02*X373400Y67500D01*
X372650Y72750D02*Y68250D01*
Y72750D02*X373400Y73500D01*
X375650D01*
X200000Y87750D02*Y82500D01*
Y87750D02*X200750Y88500D01*
X203000D01*
X203750Y87750D01*
Y82500D01*
X200000Y85500D02*X203750D01*
X205550D02*Y83250D01*
X206300Y82500D01*
X207800D01*
X208550Y83250D01*
Y85500D02*Y83250D01*
X211100Y88500D02*Y83250D01*
X211850Y82500D01*
X210350Y86250D02*X211850D01*
X213350Y88500D02*Y82500D01*
Y84750D02*X214100Y85500D01*
X215600D01*
X216350Y84750D01*
Y82500D01*
X218150Y84750D02*Y83250D01*
Y84750D02*X218900Y85500D01*
X220400D01*
X221150Y84750D01*
Y83250D01*
X220400Y82500D02*X221150Y83250D01*
X218900Y82500D02*X220400D01*
X218150Y83250D02*X218900Y82500D01*
X223700Y84750D02*Y82500D01*
Y84750D02*X224450Y85500D01*
X225950D01*
X222950D02*X223700Y84750D01*
X227750Y86250D02*X228500D01*
X227750Y84750D02*X228500D01*
X233000Y88500D02*Y82500D01*
Y88500D02*X235250Y86250D01*
X237500Y88500D01*
Y82500D01*
X239300Y87000D02*Y86250D01*
Y84750D02*Y82500D01*
X241550Y85500D02*X243800D01*
X240800Y84750D02*X241550Y85500D01*
X240800Y84750D02*Y83250D01*
X241550Y82500D01*
X243800D01*
X245600Y88500D02*Y82500D01*
Y84750D02*X246350Y85500D01*
X247850D01*
X248600Y84750D01*
Y82500D01*
X252650Y85500D02*X253400Y84750D01*
X251150Y85500D02*X252650D01*
X250400Y84750D02*X251150Y85500D01*
X250400Y84750D02*Y83250D01*
X251150Y82500D01*
X253400Y85500D02*Y83250D01*
X254150Y82500D01*
X251150D02*X252650D01*
X253400Y83250D01*
X256700Y82500D02*X258950D01*
X255950Y83250D02*X256700Y82500D01*
X255950Y84750D02*Y83250D01*
Y84750D02*X256700Y85500D01*
X258200D01*
X258950Y84750D01*
X255950Y84000D02*X258950D01*
Y84750D02*Y84000D01*
X260750Y88500D02*Y83250D01*
X261500Y82500D01*
X266450Y88500D02*Y82500D01*
X265700Y88500D02*X268700D01*
X269450Y87750D01*
Y86250D01*
X268700Y85500D02*X269450Y86250D01*
X266450Y85500D02*X268700D01*
X272000Y82500D02*X274250D01*
X271250Y83250D02*X272000Y82500D01*
X271250Y84750D02*Y83250D01*
Y84750D02*X272000Y85500D01*
X273500D01*
X274250Y84750D01*
X271250Y84000D02*X274250D01*
Y84750D02*Y84000D01*
X276800Y88500D02*Y83250D01*
X277550Y82500D01*
X276050Y86250D02*X277550D01*
X279800Y82500D02*X282050D01*
X279050Y83250D02*X279800Y82500D01*
X279050Y84750D02*Y83250D01*
Y84750D02*X279800Y85500D01*
X281300D01*
X282050Y84750D01*
X279050Y84000D02*X282050D01*
Y84750D02*Y84000D01*
X284600Y84750D02*Y82500D01*
Y84750D02*X285350Y85500D01*
X286850D01*
X283850D02*X284600Y84750D01*
X289400Y82500D02*X291650D01*
X292400Y83250D01*
X291650Y84000D02*X292400Y83250D01*
X289400Y84000D02*X291650D01*
X288650Y84750D02*X289400Y84000D01*
X288650Y84750D02*X289400Y85500D01*
X291650D01*
X292400Y84750D01*
X288650Y83250D02*X289400Y82500D01*
X294950D02*X297200D01*
X294200Y83250D02*X294950Y82500D01*
X294200Y84750D02*Y83250D01*
Y84750D02*X294950Y85500D01*
X296450D01*
X297200Y84750D01*
X294200Y84000D02*X297200D01*
Y84750D02*Y84000D01*
X299750Y84750D02*Y82500D01*
Y84750D02*X300500Y85500D01*
X301250D01*
X302000Y84750D01*
Y82500D01*
X299000Y85500D02*X299750Y84750D01*
X200000Y103500D02*X203000D01*
X201500D02*Y97500D01*
X204800Y102000D02*Y101250D01*
Y99750D02*Y97500D01*
X207050Y103500D02*Y98250D01*
X207800Y97500D01*
X206300Y101250D02*X207800D01*
X209300Y103500D02*Y98250D01*
X210050Y97500D01*
X212300D02*X214550D01*
X211550Y98250D02*X212300Y97500D01*
X211550Y99750D02*Y98250D01*
Y99750D02*X212300Y100500D01*
X213800D01*
X214550Y99750D01*
X211550Y99000D02*X214550D01*
Y99750D02*Y99000D01*
X216350Y101250D02*X217100D01*
X216350Y99750D02*X217100D01*
X221600Y98250D02*X222350Y97500D01*
X221600Y102750D02*X222350Y103500D01*
X221600Y102750D02*Y98250D01*
X224150Y100500D02*Y98250D01*
X224900Y97500D01*
X226400D01*
X227150Y98250D01*
Y100500D02*Y98250D01*
X229700Y99750D02*Y97500D01*
Y99750D02*X230450Y100500D01*
X231200D01*
X231950Y99750D01*
Y97500D01*
X228950Y100500D02*X229700Y99750D01*
X233750Y103500D02*Y97500D01*
Y99750D02*X236000Y97500D01*
X233750Y99750D02*X235250Y101250D01*
X238550Y99750D02*Y97500D01*
Y99750D02*X239300Y100500D01*
X240050D01*
X240800Y99750D01*
Y97500D01*
X237800Y100500D02*X238550Y99750D01*
X242600D02*Y98250D01*
Y99750D02*X243350Y100500D01*
X244850D01*
X245600Y99750D01*
Y98250D01*
X244850Y97500D02*X245600Y98250D01*
X243350Y97500D02*X244850D01*
X242600Y98250D02*X243350Y97500D01*
X247400Y100500D02*Y98250D01*
X248150Y97500D01*
X248900D01*
X249650Y98250D01*
Y100500D02*Y98250D01*
X250400Y97500D01*
X251150D01*
X251900Y98250D01*
Y100500D02*Y98250D01*
X254450Y99750D02*Y97500D01*
Y99750D02*X255200Y100500D01*
X255950D01*
X256700Y99750D01*
Y97500D01*
X253700Y100500D02*X254450Y99750D01*
X258500Y103500D02*X259250Y102750D01*
Y98250D01*
X258500Y97500D02*X259250Y98250D01*
X263750Y100500D02*X266750D01*
X271250Y103500D02*Y97500D01*
Y103500D02*X274250D01*
X271250Y100500D02*X273500D01*
X278300D02*X279050Y99750D01*
X276800Y100500D02*X278300D01*
X276050Y99750D02*X276800Y100500D01*
X276050Y99750D02*Y98250D01*
X276800Y97500D01*
X279050Y100500D02*Y98250D01*
X279800Y97500D01*
X276800D02*X278300D01*
X279050Y98250D01*
X281600Y103500D02*Y97500D01*
Y98250D02*X282350Y97500D01*
X283850D01*
X284600Y98250D01*
Y99750D02*Y98250D01*
X283850Y100500D02*X284600Y99750D01*
X282350Y100500D02*X283850D01*
X281600Y99750D02*X282350Y100500D01*
X287150Y99750D02*Y97500D01*
Y99750D02*X287900Y100500D01*
X289400D01*
X286400D02*X287150Y99750D01*
X291200Y102000D02*Y101250D01*
Y99750D02*Y97500D01*
X293450Y100500D02*X295700D01*
X292700Y99750D02*X293450Y100500D01*
X292700Y99750D02*Y98250D01*
X293450Y97500D01*
X295700D01*
X299750Y100500D02*X300500Y99750D01*
X298250Y100500D02*X299750D01*
X297500Y99750D02*X298250Y100500D01*
X297500Y99750D02*Y98250D01*
X298250Y97500D01*
X300500Y100500D02*Y98250D01*
X301250Y97500D01*
X298250D02*X299750D01*
X300500Y98250D01*
X303800Y103500D02*Y98250D01*
X304550Y97500D01*
X303050Y101250D02*X304550D01*
X306050Y102000D02*Y101250D01*
Y99750D02*Y97500D01*
X307550Y99750D02*Y98250D01*
Y99750D02*X308300Y100500D01*
X309800D01*
X310550Y99750D01*
Y98250D01*
X309800Y97500D02*X310550Y98250D01*
X308300Y97500D02*X309800D01*
X307550Y98250D02*X308300Y97500D01*
X313100Y99750D02*Y97500D01*
Y99750D02*X313850Y100500D01*
X314600D01*
X315350Y99750D01*
Y97500D01*
X312350Y100500D02*X313100Y99750D01*
X320600Y103500D02*Y97500D01*
X322850Y103500D02*X323600Y102750D01*
Y98250D01*
X322850Y97500D02*X323600Y98250D01*
X319850Y97500D02*X322850D01*
X319850Y103500D02*X322850D01*
X326150Y99750D02*Y97500D01*
Y99750D02*X326900Y100500D01*
X328400D01*
X325400D02*X326150Y99750D01*
X332450Y100500D02*X333200Y99750D01*
X330950Y100500D02*X332450D01*
X330200Y99750D02*X330950Y100500D01*
X330200Y99750D02*Y98250D01*
X330950Y97500D01*
X333200Y100500D02*Y98250D01*
X333950Y97500D01*
X330950D02*X332450D01*
X333200Y98250D01*
X335750Y100500D02*Y98250D01*
X336500Y97500D01*
X337250D01*
X338000Y98250D01*
Y100500D02*Y98250D01*
X338750Y97500D01*
X339500D01*
X340250Y98250D01*
Y100500D02*Y98250D01*
X342050Y102000D02*Y101250D01*
Y99750D02*Y97500D01*
X344300Y99750D02*Y97500D01*
Y99750D02*X345050Y100500D01*
X345800D01*
X346550Y99750D01*
Y97500D01*
X343550Y100500D02*X344300Y99750D01*
X350600Y100500D02*X351350Y99750D01*
X349100Y100500D02*X350600D01*
X348350Y99750D02*X349100Y100500D01*
X348350Y99750D02*Y98250D01*
X349100Y97500D01*
X350600D01*
X351350Y98250D01*
X348350Y96000D02*X349100Y95250D01*
X350600D01*
X351350Y96000D01*
Y100500D02*Y96000D01*
M02*
