G04 start of page 10 for group -4015 idx -4015 *
G04 Title: (unknown), toppaste *
G04 Creator: pcb 20140316 *
G04 CreationDate: Tue 15 Jan 2019 03:59:46 AM GMT UTC *
G04 For: railfan *
G04 Format: Gerber/RS-274X *
G04 PCB-Dimensions (mil): 3500.00 450.00 *
G04 PCB-Coordinate-Origin: lower left *
%MOIN*%
%FSLAX25Y25*%
%LNTOPPASTE*%
%ADD40R,0.0197X0.0197*%
%ADD39R,0.0394X0.0394*%
%ADD38R,0.0512X0.0512*%
G54D38*X58957Y5893D02*Y5107D01*
X66043Y5893D02*Y5107D01*
X58957Y26893D02*Y26107D01*
X66043Y26893D02*Y26107D01*
X56595Y17681D02*Y15319D01*
X68405Y17681D02*Y15319D01*
G54D39*X58957Y34500D02*X59351D01*
X65649D02*X66043D01*
G54D40*X60926Y41393D02*Y40607D01*
X64074Y41393D02*Y40607D01*
G54D38*X83957Y5893D02*Y5107D01*
X91043Y5893D02*Y5107D01*
X83957Y26893D02*Y26107D01*
X91043Y26893D02*Y26107D01*
X81595Y17681D02*Y15319D01*
X93405Y17681D02*Y15319D01*
G54D39*X83957Y34500D02*X84351D01*
X90649D02*X91043D01*
G54D40*X85926Y41393D02*Y40607D01*
X89074Y41393D02*Y40607D01*
G54D38*X108957Y5893D02*Y5107D01*
X116043Y5893D02*Y5107D01*
X108957Y26893D02*Y26107D01*
X116043Y26893D02*Y26107D01*
X106595Y17681D02*Y15319D01*
X118405Y17681D02*Y15319D01*
G54D39*X108957Y34500D02*X109351D01*
X115649D02*X116043D01*
G54D40*X110926Y41393D02*Y40607D01*
X114074Y41393D02*Y40607D01*
G54D38*X133957Y5893D02*Y5107D01*
X141043Y5893D02*Y5107D01*
X133957Y26893D02*Y26107D01*
X141043Y26893D02*Y26107D01*
X131595Y17681D02*Y15319D01*
X143405Y17681D02*Y15319D01*
G54D39*X133957Y34500D02*X134351D01*
X140649D02*X141043D01*
G54D40*X135926Y41393D02*Y40607D01*
X139074Y41393D02*Y40607D01*
G54D38*X158957Y5893D02*Y5107D01*
X166043Y5893D02*Y5107D01*
X158957Y26893D02*Y26107D01*
X166043Y26893D02*Y26107D01*
X156595Y17681D02*Y15319D01*
X168405Y17681D02*Y15319D01*
G54D39*X158957Y34500D02*X159351D01*
X165649D02*X166043D01*
G54D40*X160926Y41393D02*Y40607D01*
X164074Y41393D02*Y40607D01*
G54D38*X183957Y5893D02*Y5107D01*
X191043Y5893D02*Y5107D01*
X183957Y26893D02*Y26107D01*
X191043Y26893D02*Y26107D01*
X181595Y17681D02*Y15319D01*
X193405Y17681D02*Y15319D01*
G54D39*X183957Y34500D02*X184351D01*
X190649D02*X191043D01*
G54D40*X185926Y41393D02*Y40607D01*
X189074Y41393D02*Y40607D01*
G54D38*X208957Y5893D02*Y5107D01*
X216043Y5893D02*Y5107D01*
X208957Y26893D02*Y26107D01*
X216043Y26893D02*Y26107D01*
X206595Y17681D02*Y15319D01*
X218405Y17681D02*Y15319D01*
G54D39*X208957Y34500D02*X209351D01*
X215649D02*X216043D01*
G54D40*X210926Y41393D02*Y40607D01*
X214074Y41393D02*Y40607D01*
G54D38*X233957Y5893D02*Y5107D01*
X241043Y5893D02*Y5107D01*
X233957Y26893D02*Y26107D01*
X241043Y26893D02*Y26107D01*
X231595Y17681D02*Y15319D01*
X243405Y17681D02*Y15319D01*
G54D39*X233957Y34500D02*X234351D01*
X240649D02*X241043D01*
G54D40*X235926Y41393D02*Y40607D01*
X239074Y41393D02*Y40607D01*
G54D38*X258957Y5893D02*Y5107D01*
X266043Y5893D02*Y5107D01*
X258957Y26893D02*Y26107D01*
X266043Y26893D02*Y26107D01*
X256595Y17681D02*Y15319D01*
X268405Y17681D02*Y15319D01*
G54D39*X258957Y34500D02*X259351D01*
X265649D02*X266043D01*
G54D40*X260926Y41393D02*Y40607D01*
X264074Y41393D02*Y40607D01*
G54D38*X283957Y5893D02*Y5107D01*
X291043Y5893D02*Y5107D01*
X283957Y26893D02*Y26107D01*
X291043Y26893D02*Y26107D01*
X281595Y17681D02*Y15319D01*
X293405Y17681D02*Y15319D01*
G54D39*X283957Y34500D02*X284351D01*
X290649D02*X291043D01*
G54D40*X285926Y41393D02*Y40607D01*
X289074Y41393D02*Y40607D01*
G54D38*X308957Y5893D02*Y5107D01*
X316043Y5893D02*Y5107D01*
X308957Y26893D02*Y26107D01*
X316043Y26893D02*Y26107D01*
X306595Y17681D02*Y15319D01*
X318405Y17681D02*Y15319D01*
G54D39*X308957Y34500D02*X309351D01*
X315649D02*X316043D01*
G54D40*X310926Y41393D02*Y40607D01*
X314074Y41393D02*Y40607D01*
G54D38*X333957Y5893D02*Y5107D01*
X341043Y5893D02*Y5107D01*
X333957Y26893D02*Y26107D01*
X341043Y26893D02*Y26107D01*
X331595Y17681D02*Y15319D01*
X343405Y17681D02*Y15319D01*
G54D39*X333957Y34500D02*X334351D01*
X340649D02*X341043D01*
G54D40*X335926Y41393D02*Y40607D01*
X339074Y41393D02*Y40607D01*
M02*
