G04 start of page 8 for group -4079 idx -4079 *
G04 Title: (unknown), topsilk *
G04 Creator: pcb 20140316 *
G04 CreationDate: Tue 15 Jan 2019 03:59:46 AM GMT UTC *
G04 For: railfan *
G04 Format: Gerber/RS-274X *
G04 PCB-Dimensions (mil): 3500.00 450.00 *
G04 PCB-Coordinate-Origin: lower left *
%MOIN*%
%FSLAX25Y25*%
%LNTOPSILK*%
%ADD36C,0.0100*%
G54D36*X119500Y42500D02*Y38500D01*
X117500Y40500D02*X121500D01*
X144500Y42500D02*Y38500D01*
X169500Y42500D02*Y38500D01*
X167500Y40500D02*X171500D01*
X142500D02*X146500D01*
X69500Y42500D02*Y38500D01*
X67500Y40500D02*X71500D01*
X94500Y42500D02*Y38500D01*
X92500Y40500D02*X96500D01*
X8500Y12500D02*X2500D01*
X5500Y15500D02*Y9500D01*
Y35500D02*Y29500D01*
X194500Y42500D02*Y38500D01*
X192500Y40500D02*X196500D01*
X219500Y42500D02*Y38500D01*
X217500Y40500D02*X221500D01*
X244500Y42500D02*Y38500D01*
X242500Y40500D02*X246500D01*
X269500Y42500D02*Y38500D01*
X267500Y40500D02*X271500D01*
X294500Y42500D02*Y38500D01*
X292500Y40500D02*X296500D01*
X319500Y42500D02*Y38500D01*
X317500Y40500D02*X321500D01*
X344500Y42500D02*Y38500D01*
X342500Y40500D02*X346500D01*
X85138Y20240D02*X89862D01*
X85138Y12760D02*X89862D01*
X110138Y20240D02*X114862D01*
X110138Y12760D02*X114862D01*
X135138Y20240D02*X139862D01*
X135138Y12760D02*X139862D01*
X112107Y29255D02*X112893D01*
X112107Y23745D02*X112893D01*
X112250Y36468D02*X112750D01*
X112250Y32532D02*X112750D01*
X137107Y29255D02*X137893D01*
X137107Y23745D02*X137893D01*
X137250Y36468D02*X137750D01*
X137250Y32532D02*X137750D01*
X162107Y29255D02*X162893D01*
X162107Y23745D02*X162893D01*
X162250Y36468D02*X162750D01*
X162250Y32532D02*X162750D01*
X62107Y8255D02*X62893D01*
X62107Y2745D02*X62893D01*
X62107Y29255D02*X62893D01*
X62107Y23745D02*X62893D01*
X60138Y20240D02*X64862D01*
X60138Y12760D02*X64862D01*
X10700Y42500D02*Y2500D01*
X40700Y42500D02*Y2500D01*
X36300Y42500D02*Y2500D01*
X10700Y42500D02*X40700D01*
X10700Y2500D02*X40700D01*
X62250Y36468D02*X62750D01*
X62250Y32532D02*X62750D01*
X87107Y8255D02*X87893D01*
X87107Y2745D02*X87893D01*
X87107Y29255D02*X87893D01*
X87107Y23745D02*X87893D01*
X87250Y36468D02*X87750D01*
X87250Y32532D02*X87750D01*
X112107Y8255D02*X112893D01*
X112107Y2745D02*X112893D01*
X137107Y8255D02*X137893D01*
X137107Y2745D02*X137893D01*
X162107Y8255D02*X162893D01*
X162107Y2745D02*X162893D01*
X212107Y8255D02*X212893D01*
X212107Y2745D02*X212893D01*
X160138Y20240D02*X164862D01*
X160138Y12760D02*X164862D01*
X187107Y8255D02*X187893D01*
X187107Y2745D02*X187893D01*
X187107Y29255D02*X187893D01*
X187107Y23745D02*X187893D01*
X185138Y20240D02*X189862D01*
X185138Y12760D02*X189862D01*
X187250Y36468D02*X187750D01*
X187250Y32532D02*X187750D01*
X212107Y29255D02*X212893D01*
X212107Y23745D02*X212893D01*
X210138Y20240D02*X214862D01*
X210138Y12760D02*X214862D01*
X212250Y36468D02*X212750D01*
X212250Y32532D02*X212750D01*
X237107Y29255D02*X237893D01*
X237107Y23745D02*X237893D01*
X235138Y20240D02*X239862D01*
X235138Y12760D02*X239862D01*
X237250Y36468D02*X237750D01*
X237250Y32532D02*X237750D01*
X237107Y8255D02*X237893D01*
X237107Y2745D02*X237893D01*
X262107Y8255D02*X262893D01*
X262107Y2745D02*X262893D01*
X312107Y8255D02*X312893D01*
X312107Y2745D02*X312893D01*
X262107Y29255D02*X262893D01*
X262107Y23745D02*X262893D01*
X260138Y20240D02*X264862D01*
X260138Y12760D02*X264862D01*
X262250Y36468D02*X262750D01*
X262250Y32532D02*X262750D01*
X287107Y8255D02*X287893D01*
X287107Y2745D02*X287893D01*
X287107Y29255D02*X287893D01*
X287107Y23745D02*X287893D01*
X285138Y20240D02*X289862D01*
X285138Y12760D02*X289862D01*
X287250Y36468D02*X287750D01*
X287250Y32532D02*X287750D01*
X312107Y29255D02*X312893D01*
X312107Y23745D02*X312893D01*
X310138Y20240D02*X314862D01*
X310138Y12760D02*X314862D01*
X312250Y36468D02*X312750D01*
X312250Y32532D02*X312750D01*
X337107Y8255D02*X337893D01*
X337107Y2745D02*X337893D01*
X337107Y29255D02*X337893D01*
X337107Y23745D02*X337893D01*
X335138Y20240D02*X339862D01*
X335138Y12760D02*X339862D01*
X337250Y36468D02*X337750D01*
X337250Y32532D02*X337750D01*
M02*
