G04 start of page 2 for group 0 idx 0 *
G04 Title: (unknown), component *
G04 Creator: pcb 20140316 *
G04 CreationDate: Tue 15 Jan 2019 03:59:46 AM GMT UTC *
G04 For: railfan *
G04 Format: Gerber/RS-274X *
G04 PCB-Dimensions (mil): 3500.00 450.00 *
G04 PCB-Coordinate-Origin: lower left *
%MOIN*%
%FSLAX25Y25*%
%LNTOP*%
%ADD19C,0.0480*%
%ADD18C,0.0120*%
%ADD17C,0.0280*%
%ADD16R,0.0197X0.0197*%
%ADD15R,0.0394X0.0394*%
%ADD14R,0.0512X0.0512*%
%ADD13C,0.0800*%
%ADD12C,0.0001*%
%ADD11C,0.0100*%
G54D11*X167500Y5500D02*Y26500D01*
X182500D02*Y16500D01*
X177000Y11000D02*X181500Y15500D01*
X192500Y5500D02*Y26500D01*
X191000D02*Y34500D01*
X189500Y41000D02*Y34500D01*
X184000D02*Y26500D01*
X185500Y41000D02*Y34500D01*
X177000Y5500D02*X184000D01*
X217500D02*Y26500D01*
X216000D02*Y34500D01*
X214500Y41000D02*Y34500D01*
X209000D02*Y26500D01*
X210500Y41000D02*Y34500D01*
X207500Y26500D02*Y16500D01*
X202000Y11000D02*X206500Y15500D01*
X202000Y5500D02*X209000D01*
X242500D02*Y26500D01*
X241000D02*Y34500D01*
X239500Y41000D02*Y34500D01*
X232500Y26500D02*Y16500D01*
X234000Y34500D02*Y26500D01*
X235500Y41000D02*Y34500D01*
X227000Y11000D02*X231500Y15500D01*
X252000Y11000D02*X256500Y15500D01*
X227000Y5500D02*X234000D01*
X252000D02*X259000D01*
X267500D02*Y26500D01*
X282500D02*Y16500D01*
X277000Y11000D02*X281500Y15500D01*
X266000Y26500D02*Y34500D01*
X257500Y26500D02*Y16500D01*
X259000Y34500D02*Y26500D01*
X264500Y41000D02*Y34500D01*
X260500Y41000D02*Y34500D01*
X277000Y5500D02*X284000D01*
X292500D02*Y26500D01*
X291000D02*Y34500D01*
X289500Y41000D02*Y34500D01*
X284000D02*Y26500D01*
X285500Y41000D02*Y34500D01*
X317500Y5500D02*Y26500D01*
X316000D02*Y34500D01*
X314500Y41000D02*Y34500D01*
X309000D02*Y26500D01*
X310500Y41000D02*Y34500D01*
X307500Y26500D02*Y16500D01*
X302000Y11000D02*X306500Y15500D01*
X302000Y5500D02*X309000D01*
X327000D02*X334000D01*
X342500D02*Y26500D01*
X341000D02*Y34500D01*
X339500Y41000D02*Y34500D01*
X332500Y26500D02*Y16500D01*
X334000Y34500D02*Y26500D01*
X335500Y41000D02*Y34500D01*
X327000Y11000D02*X331500Y15500D01*
X92500Y5500D02*Y26500D01*
X107500D02*Y16500D01*
X102000Y11000D02*X106500Y15500D01*
X91000Y26500D02*Y34500D01*
X82500Y26500D02*Y16500D01*
X84000Y34500D02*Y26500D01*
X77000Y11000D02*X81500Y15500D01*
X89500Y41000D02*Y34500D01*
X85500Y41000D02*Y34500D01*
X102000Y5500D02*X109000D01*
X57500Y26500D02*Y16500D01*
X52000Y11000D02*X56500Y15500D01*
X67500Y5500D02*Y26500D01*
X66000D02*Y34500D01*
X64500Y41000D02*Y34500D01*
X59000D02*Y26500D01*
X60500Y41000D02*Y34500D01*
X52000Y5500D02*X59000D01*
X77000D02*X84000D01*
X117500D02*Y26500D01*
X116000D02*Y34500D01*
X114500Y41000D02*Y34500D01*
X109000D02*Y26500D01*
X110500Y41000D02*Y34500D01*
X142500Y5500D02*Y26500D01*
X141000D02*Y34500D01*
X139500Y41000D02*Y34500D01*
X134000D02*Y26500D01*
X135500Y41000D02*Y34500D01*
X132500Y26500D02*Y16500D01*
X127000Y11000D02*X131500Y15500D01*
X127000Y5500D02*X134000D01*
X152000D02*X159000D01*
X166000Y26500D02*Y34500D01*
X164500Y41000D02*Y34500D01*
X157500Y26500D02*Y16500D01*
X159000Y34500D02*Y26500D01*
X160500Y41000D02*Y34500D01*
X152000Y11000D02*X156500Y15500D01*
G54D12*G36*
X19500Y36500D02*Y28500D01*
X27500D01*
Y36500D01*
X19500D01*
G37*
G54D13*X23500Y12500D03*
G54D14*X133957Y26893D02*Y26107D01*
X141043Y26893D02*Y26107D01*
G54D15*X133957Y34500D02*X134351D01*
X140649D02*X141043D01*
G54D16*X135926Y41393D02*Y40607D01*
X139074Y41393D02*Y40607D01*
G54D14*X158957Y26893D02*Y26107D01*
X166043Y26893D02*Y26107D01*
G54D15*X158957Y34500D02*X159351D01*
X165649D02*X166043D01*
G54D16*X160926Y41393D02*Y40607D01*
X164074Y41393D02*Y40607D01*
G54D14*X141043Y5893D02*Y5107D01*
X158957Y5893D02*Y5107D01*
X166043Y5893D02*Y5107D01*
X183957Y5893D02*Y5107D01*
X143405Y17681D02*Y15319D01*
X156595Y17681D02*Y15319D01*
X168405Y17681D02*Y15319D01*
X181595Y17681D02*Y15319D01*
X193405Y17681D02*Y15319D01*
X191043Y5893D02*Y5107D01*
X208957Y5893D02*Y5107D01*
X216043Y5893D02*Y5107D01*
X233957Y5893D02*Y5107D01*
X241043Y5893D02*Y5107D01*
X183957Y26893D02*Y26107D01*
X191043Y26893D02*Y26107D01*
G54D15*X183957Y34500D02*X184351D01*
X190649D02*X191043D01*
G54D16*X185926Y41393D02*Y40607D01*
X189074Y41393D02*Y40607D01*
G54D14*X206595Y17681D02*Y15319D01*
X83957Y5893D02*Y5107D01*
Y26893D02*Y26107D01*
X81595Y17681D02*Y15319D01*
G54D15*X83957Y34500D02*X84351D01*
G54D16*X85926Y41393D02*Y40607D01*
G54D14*X91043Y5893D02*Y5107D01*
Y26893D02*Y26107D01*
X93405Y17681D02*Y15319D01*
G54D15*X90649Y34500D02*X91043D01*
G54D16*X89074Y41393D02*Y40607D01*
G54D14*X58957Y26893D02*Y26107D01*
X66043Y26893D02*Y26107D01*
G54D15*X58957Y34500D02*X59351D01*
X65649D02*X66043D01*
G54D14*X58957Y5893D02*Y5107D01*
X66043Y5893D02*Y5107D01*
X56595Y17681D02*Y15319D01*
X68405Y17681D02*Y15319D01*
G54D16*X60926Y41393D02*Y40607D01*
X64074Y41393D02*Y40607D01*
G54D14*X108957Y5893D02*Y5107D01*
X116043Y5893D02*Y5107D01*
X133957Y5893D02*Y5107D01*
X108957Y26893D02*Y26107D01*
G54D15*Y34500D02*X109351D01*
G54D16*X110926Y41393D02*Y40607D01*
G54D14*X116043Y26893D02*Y26107D01*
G54D15*X115649Y34500D02*X116043D01*
G54D16*X114074Y41393D02*Y40607D01*
G54D14*X106595Y17681D02*Y15319D01*
X118405Y17681D02*Y15319D01*
X131595Y17681D02*Y15319D01*
X208957Y26893D02*Y26107D01*
G54D15*Y34500D02*X209351D01*
G54D16*X210926Y41393D02*Y40607D01*
G54D14*X216043Y26893D02*Y26107D01*
G54D15*X215649Y34500D02*X216043D01*
G54D16*X214074Y41393D02*Y40607D01*
G54D14*X218405Y17681D02*Y15319D01*
X231595Y17681D02*Y15319D01*
X233957Y26893D02*Y26107D01*
X241043Y26893D02*Y26107D01*
X243405Y17681D02*Y15319D01*
G54D15*X233957Y34500D02*X234351D01*
X240649D02*X241043D01*
G54D16*X235926Y41393D02*Y40607D01*
X239074Y41393D02*Y40607D01*
X260926Y41393D02*Y40607D01*
X264074Y41393D02*Y40607D01*
X285926Y41393D02*Y40607D01*
X289074Y41393D02*Y40607D01*
X310926Y41393D02*Y40607D01*
X314074Y41393D02*Y40607D01*
X335926Y41393D02*Y40607D01*
X339074Y41393D02*Y40607D01*
G54D14*X258957Y5893D02*Y5107D01*
X266043Y5893D02*Y5107D01*
X256595Y17681D02*Y15319D01*
X258957Y26893D02*Y26107D01*
X266043Y26893D02*Y26107D01*
G54D15*X258957Y34500D02*X259351D01*
X265649D02*X266043D01*
G54D14*X268405Y17681D02*Y15319D01*
X283957Y5893D02*Y5107D01*
X291043Y5893D02*Y5107D01*
X281595Y17681D02*Y15319D01*
X293405Y17681D02*Y15319D01*
X306595Y17681D02*Y15319D01*
X318405Y17681D02*Y15319D01*
X283957Y26893D02*Y26107D01*
X291043Y26893D02*Y26107D01*
G54D15*X283957Y34500D02*X284351D01*
X290649D02*X291043D01*
G54D14*X308957Y5893D02*Y5107D01*
X316043Y5893D02*Y5107D01*
X308957Y26893D02*Y26107D01*
X316043Y26893D02*Y26107D01*
G54D15*X308957Y34500D02*X309351D01*
X315649D02*X316043D01*
G54D14*X333957Y5893D02*Y5107D01*
Y26893D02*Y26107D01*
X331595Y17681D02*Y15319D01*
G54D15*X333957Y34500D02*X334351D01*
G54D14*X341043Y5893D02*Y5107D01*
Y26893D02*Y26107D01*
X343405Y17681D02*Y15319D01*
G54D15*X340649Y34500D02*X341043D01*
G54D17*X177000Y11000D03*
X202000D03*
X227000D03*
X177000Y5500D03*
X202000D03*
X227000D03*
X252000D03*
X277000D03*
X302000D03*
X252000Y11000D03*
X277000D03*
X302000D03*
X327000D03*
Y5500D03*
X102000Y11000D03*
Y5500D03*
X127000Y11000D03*
Y5500D03*
X52000Y11000D03*
Y5500D03*
X77000Y11000D03*
Y5500D03*
X152000Y11000D03*
Y5500D03*
G54D18*G54D19*M02*
