G04 start of page 6 for group -4063 idx -4063 *
G04 Title: (unknown), componentmask *
G04 Creator: pcb 20140316 *
G04 CreationDate: Tue 15 Jan 2019 03:59:46 AM GMT UTC *
G04 For: railfan *
G04 Format: Gerber/RS-274X *
G04 PCB-Dimensions (mil): 3500.00 450.00 *
G04 PCB-Coordinate-Origin: lower left *
%MOIN*%
%FSLAX25Y25*%
%LNTOPMASK*%
%ADD33R,0.0257X0.0257*%
%ADD32R,0.0454X0.0454*%
%ADD31R,0.0572X0.0572*%
%ADD30C,0.0860*%
%ADD29C,0.0001*%
G54D29*G36*
X19200Y36800D02*Y28200D01*
X27800D01*
Y36800D01*
X19200D01*
G37*
G54D30*X23500Y12500D03*
G54D31*X133957Y26893D02*Y26107D01*
X141043Y26893D02*Y26107D01*
G54D32*X133957Y34500D02*X134351D01*
X140649D02*X141043D01*
G54D33*X135926Y41393D02*Y40607D01*
X139074Y41393D02*Y40607D01*
G54D31*X158957Y26893D02*Y26107D01*
X166043Y26893D02*Y26107D01*
G54D32*X158957Y34500D02*X159351D01*
X165649D02*X166043D01*
G54D33*X160926Y41393D02*Y40607D01*
X164074Y41393D02*Y40607D01*
G54D31*X141043Y5893D02*Y5107D01*
X158957Y5893D02*Y5107D01*
X166043Y5893D02*Y5107D01*
X183957Y5893D02*Y5107D01*
X143405Y17681D02*Y15319D01*
X156595Y17681D02*Y15319D01*
X168405Y17681D02*Y15319D01*
X181595Y17681D02*Y15319D01*
X193405Y17681D02*Y15319D01*
X191043Y5893D02*Y5107D01*
X208957Y5893D02*Y5107D01*
X216043Y5893D02*Y5107D01*
X233957Y5893D02*Y5107D01*
X241043Y5893D02*Y5107D01*
X183957Y26893D02*Y26107D01*
X191043Y26893D02*Y26107D01*
G54D32*X183957Y34500D02*X184351D01*
X190649D02*X191043D01*
G54D33*X185926Y41393D02*Y40607D01*
X189074Y41393D02*Y40607D01*
G54D31*X206595Y17681D02*Y15319D01*
X83957Y5893D02*Y5107D01*
Y26893D02*Y26107D01*
X81595Y17681D02*Y15319D01*
G54D32*X83957Y34500D02*X84351D01*
G54D33*X85926Y41393D02*Y40607D01*
G54D31*X91043Y5893D02*Y5107D01*
Y26893D02*Y26107D01*
X93405Y17681D02*Y15319D01*
G54D32*X90649Y34500D02*X91043D01*
G54D33*X89074Y41393D02*Y40607D01*
G54D31*X58957Y26893D02*Y26107D01*
X66043Y26893D02*Y26107D01*
G54D32*X58957Y34500D02*X59351D01*
X65649D02*X66043D01*
G54D31*X58957Y5893D02*Y5107D01*
X66043Y5893D02*Y5107D01*
X56595Y17681D02*Y15319D01*
X68405Y17681D02*Y15319D01*
G54D33*X60926Y41393D02*Y40607D01*
X64074Y41393D02*Y40607D01*
G54D31*X108957Y5893D02*Y5107D01*
X116043Y5893D02*Y5107D01*
X133957Y5893D02*Y5107D01*
X108957Y26893D02*Y26107D01*
G54D32*Y34500D02*X109351D01*
G54D33*X110926Y41393D02*Y40607D01*
G54D31*X116043Y26893D02*Y26107D01*
G54D32*X115649Y34500D02*X116043D01*
G54D33*X114074Y41393D02*Y40607D01*
G54D31*X106595Y17681D02*Y15319D01*
X118405Y17681D02*Y15319D01*
X131595Y17681D02*Y15319D01*
X208957Y26893D02*Y26107D01*
G54D32*Y34500D02*X209351D01*
G54D33*X210926Y41393D02*Y40607D01*
G54D31*X216043Y26893D02*Y26107D01*
G54D32*X215649Y34500D02*X216043D01*
G54D33*X214074Y41393D02*Y40607D01*
G54D31*X218405Y17681D02*Y15319D01*
X231595Y17681D02*Y15319D01*
X233957Y26893D02*Y26107D01*
X241043Y26893D02*Y26107D01*
X243405Y17681D02*Y15319D01*
G54D32*X233957Y34500D02*X234351D01*
X240649D02*X241043D01*
G54D33*X235926Y41393D02*Y40607D01*
X239074Y41393D02*Y40607D01*
X260926Y41393D02*Y40607D01*
X264074Y41393D02*Y40607D01*
X285926Y41393D02*Y40607D01*
X289074Y41393D02*Y40607D01*
X310926Y41393D02*Y40607D01*
X314074Y41393D02*Y40607D01*
X335926Y41393D02*Y40607D01*
X339074Y41393D02*Y40607D01*
G54D31*X258957Y5893D02*Y5107D01*
X266043Y5893D02*Y5107D01*
X256595Y17681D02*Y15319D01*
X258957Y26893D02*Y26107D01*
X266043Y26893D02*Y26107D01*
G54D32*X258957Y34500D02*X259351D01*
X265649D02*X266043D01*
G54D31*X268405Y17681D02*Y15319D01*
X283957Y5893D02*Y5107D01*
X291043Y5893D02*Y5107D01*
X281595Y17681D02*Y15319D01*
X293405Y17681D02*Y15319D01*
X306595Y17681D02*Y15319D01*
X318405Y17681D02*Y15319D01*
X283957Y26893D02*Y26107D01*
X291043Y26893D02*Y26107D01*
G54D32*X283957Y34500D02*X284351D01*
X290649D02*X291043D01*
G54D31*X308957Y5893D02*Y5107D01*
X316043Y5893D02*Y5107D01*
X308957Y26893D02*Y26107D01*
X316043Y26893D02*Y26107D01*
G54D32*X308957Y34500D02*X309351D01*
X315649D02*X316043D01*
G54D31*X333957Y5893D02*Y5107D01*
Y26893D02*Y26107D01*
X331595Y17681D02*Y15319D01*
G54D32*X333957Y34500D02*X334351D01*
G54D31*X341043Y5893D02*Y5107D01*
Y26893D02*Y26107D01*
X343405Y17681D02*Y15319D01*
G54D32*X340649Y34500D02*X341043D01*
M02*
