M48
INCH
T28C0.012
T27C0.048
%
T28
X005200Y001100
X005200Y000550
X007700Y001100
X007700Y000550
X010200Y001100
X010200Y000550
X012700Y001100
X012700Y000550
X015200Y001100
X015200Y000550
X017700Y001100
X017700Y000550
X020200Y001100
X020200Y000550
X022700Y001100
X022700Y000550
X025200Y001100
X025200Y000550
X027700Y001100
X027700Y000550
X030200Y001100
X030200Y000550
X032700Y001100
X032700Y000550
T27
X002350Y003250
X002350Y001250
M30
