G04 start of page 9 for group -4078 idx -4078 *
G04 Title: (unknown), bottomsilk *
G04 Creator: pcb 20140316 *
G04 CreationDate: Tue 15 Jan 2019 03:59:46 AM GMT UTC *
G04 For: railfan *
G04 Format: Gerber/RS-274X *
G04 PCB-Dimensions (mil): 3500.00 450.00 *
G04 PCB-Coordinate-Origin: lower left *
%MOIN*%
%FSLAX25Y25*%
%LNBOTTOMSILK*%
%ADD37C,0.0060*%
G54D37*X198500Y20500D02*X200000D01*
X200500Y21000D02*X200000Y20500D01*
X200500Y21000D02*Y24000D01*
X200000Y24500D01*
X198500D02*X200000D01*
X197300Y20500D02*Y24500D01*
Y22500D02*X195300Y24500D01*
X197300Y22500D02*X195300Y20500D01*
X192100Y24500D02*X194100D01*
X193100Y20500D02*Y24500D01*
X188900Y22500D02*X190900D01*
X187700Y20500D02*Y24500D01*
X185700Y20500D02*X187700D01*
X183000Y22500D02*X184500D01*
X182500Y20500D02*X184500D01*
Y24500D01*
X182500D02*X184500D01*
X180800Y20500D02*Y24500D01*
X179300D02*X178800Y24000D01*
Y21000D02*Y24000D01*
X179300Y20500D02*X178800Y21000D01*
X179300Y20500D02*X181300D01*
X179300Y24500D02*X181300D01*
X175600D02*X177600D01*
X176600Y20500D02*Y24500D01*
X172900Y22500D02*X174400D01*
X172400Y20500D02*X174400D01*
Y24500D01*
X172400D02*X174400D01*
X169200D02*X168700Y24000D01*
X169200Y24500D02*X170700D01*
X171200Y24000D02*X170700Y24500D01*
X171200Y23000D02*Y24000D01*
Y23000D02*X170700Y22500D01*
X169200D02*X170700D01*
X169200D02*X168700Y22000D01*
Y21000D02*Y22000D01*
X169200Y20500D02*X168700Y21000D01*
X169200Y20500D02*X170700D01*
X171200Y21000D02*X170700Y20500D01*
X165500Y24500D02*X167500D01*
X166500Y20500D02*Y24500D01*
X158900Y21500D02*Y22500D01*
Y21500D02*X157900Y20500D01*
X156900Y21500D01*
Y22500D01*
X154200Y20500D02*X155200D01*
X154700D02*Y24500D01*
X155700Y23500D02*X154700Y24500D01*
X152500Y20500D02*X153000D01*
X151300Y21000D02*X150800Y20500D01*
X151300Y21000D02*Y24000D01*
X150800Y24500D01*
X149800D02*X150800D01*
X149800D02*X149300Y24000D01*
Y21000D02*Y24000D01*
X149800Y20500D02*X149300Y21000D01*
X149800Y20500D02*X150800D01*
X151300Y21500D02*X149300Y23500D01*
M02*
